<svg width="18" height="18" viewBox="0 0 18 18" fill="none" xmlns="http://www.w3.org/2000/svg">
<g id="Hide-Password">
<g id="Hide">
<path id="Stroke 1" d="M7.32046 10.7751C6.88921 10.3446 6.62671 9.7596 6.62671 9.10335C6.62671 7.7886 7.68571 6.72885 8.99971 6.72885C9.64996 6.72885 10.2485 6.9921 10.6722 7.4226" stroke="#ADA4A5" stroke-width="1.2" stroke-linecap="round" stroke-linejoin="round"/>
<path id="Stroke 3" d="M11.3288 9.52417C11.1548 10.4917 10.3928 11.2552 9.42603 11.4307" stroke="#ADA4A5" stroke-width="1.2" stroke-linecap="round" stroke-linejoin="round"/>
<path id="Stroke 5" d="M4.99101 13.1042C3.80076 12.1697 2.79276 10.8047 2.06226 9.10297C2.80026 7.39372 3.81501 6.02122 5.01276 5.07922C6.20301 4.13722 7.57626 3.62572 8.99976 3.62572C10.4315 3.62572 11.804 4.14472 13.0018 5.09347" stroke="#ADA4A5" stroke-width="1.2" stroke-linecap="round" stroke-linejoin="round"/>
<path id="Stroke 7" d="M14.5858 6.74309C15.1018 7.42859 15.5556 8.21984 15.9373 9.10259C14.4621 12.5203 11.8551 14.5791 8.99983 14.5791C8.35258 14.5791 7.71433 14.4741 7.10083 14.2693" stroke="#ADA4A5" stroke-width="1.2" stroke-linecap="round" stroke-linejoin="round"/>
<path id="Stroke 9" d="M14.9152 3.18719L3.08472 15.0177" stroke="#ADA4A5" stroke-width="1.2" stroke-linecap="round" stroke-linejoin="round"/>
</g>
</g>
</svg>
